<svg width="32" height="32" viewBox="0 0 32 32" fill="none" xmlns="http://www.w3.org/2000/svg">
<path fill-rule="evenodd" clip-rule="evenodd" d="M22.1047 5.96557L24.5943 7.99181C24.8347 8.22604 24.9695 8.54798 24.9675 8.88359C24.9655 9.2192 24.8272 9.53957 24.5841 9.77101L22.6923 12.075L16.2539 19.9304C16.1424 20.0617 15.9924 20.1544 15.8251 20.1953L12.4868 20.9633C12.0439 20.9816 11.6619 20.655 11.6113 20.2145L11.7675 16.9211C11.7791 16.7529 11.8456 16.5933 11.9569 16.4667L18.1175 8.95949L20.2871 6.31245C20.7086 5.73868 21.5016 5.58737 22.1047 5.96557Z" stroke="black" stroke-width="2" stroke-linecap="round" stroke-linejoin="round"/>
<path d="M7.03617 23.9874C6.50598 23.9874 6.07617 24.4172 6.07617 24.9474C6.07617 25.4777 6.50598 25.9074 7.03617 25.9074V23.9874ZM24.5722 25.9074C25.1023 25.9074 25.5322 25.4777 25.5322 24.9474C25.5322 24.4172 25.1023 23.9874 24.5722 23.9874V25.9074ZM18.9984 8.60093C18.7999 8.10928 18.2405 7.87159 17.7489 8.07004C17.2572 8.26849 17.0195 8.82793 17.2179 9.31957L18.9984 8.60093ZM22.8945 13.016C23.4116 12.8992 23.7361 12.3852 23.6193 11.8681C23.5025 11.3509 22.9886 11.0264 22.4713 11.1432L22.8945 13.016ZM7.03617 25.9074H24.5722V23.9874H7.03617V25.9074ZM17.2179 9.31957C17.5158 10.0573 18.1274 11.1091 19.0381 11.9189C19.9656 12.7437 21.2864 13.3793 22.8945 13.016L22.4713 11.1432C21.6487 11.3291 20.9381 11.0392 20.314 10.4842C19.673 9.91413 19.2126 9.13167 18.9984 8.60093L17.2179 9.31957Z" fill="black"/>
</svg>
