<svg width="16" height="16" viewBox="0 0 16 16" fill="none" xmlns="http://www.w3.org/2000/svg">
<path d="M2.0375 8.19887C1.9875 8.07057 1.9875 7.92943 2.0375 7.80113C2.5245 6.67637 3.35114 5.71468 4.41264 5.03797C5.47414 4.36126 6.72269 4 8 4C9.27731 4 10.5259 4.36126 11.5874 5.03797C12.6489 5.71468 13.4755 6.67637 13.9625 7.80113C14.0125 7.92943 14.0125 8.07057 13.9625 8.19887C13.4755 9.32363 12.6489 10.2853 11.5874 10.962C10.5259 11.6387 9.27731 12 8 12C6.72269 12 5.47414 11.6387 4.41264 10.962C3.35114 10.2853 2.5245 9.32363 2.0375 8.19887Z" stroke="#909090" stroke-linecap="round" stroke-linejoin="round"/>
<path d="M8 10C9.10457 10 10 9.10457 10 8C10 6.89543 9.10457 6 8 6C6.89543 6 6 6.89543 6 8C6 9.10457 6.89543 10 8 10Z" stroke="#909090" stroke-linecap="round" stroke-linejoin="round"/>
</svg>
