<svg width="24" height="24" viewBox="0 0 24 24" fill="none" xmlns="http://www.w3.org/2000/svg">
<mask id="mask0_356_323" style="mask-type:alpha" maskUnits="userSpaceOnUse" x="0" y="0" width="24" height="24">
<rect width="24" height="24" fill="#D9D9D9"/>
</mask>
<g mask="url(#mask0_356_323)">
<path d="M7.425 9.4748L11.15 3.3998C11.25 3.23314 11.375 3.1123 11.525 3.0373C11.675 2.9623 11.8333 2.9248 12 2.9248C12.1667 2.9248 12.325 2.9623 12.475 3.0373C12.625 3.1123 12.75 3.23314 12.85 3.3998L16.575 9.4748C16.675 9.64147 16.725 9.81647 16.725 9.9998C16.725 10.1831 16.6833 10.3498 16.6 10.4998C16.5167 10.6498 16.4 10.7706 16.25 10.8623C16.1 10.954 15.925 10.9998 15.725 10.9998H8.275C8.075 10.9998 7.9 10.954 7.75 10.8623C7.6 10.7706 7.48333 10.6498 7.4 10.4998C7.31667 10.3498 7.275 10.1831 7.275 9.9998C7.275 9.81647 7.325 9.64147 7.425 9.4748ZM17.5 21.9998C16.25 21.9998 15.1875 21.5623 14.3125 20.6873C13.4375 19.8123 13 18.7498 13 17.4998C13 16.2498 13.4375 15.1873 14.3125 14.3123C15.1875 13.4373 16.25 12.9998 17.5 12.9998C18.75 12.9998 19.8125 13.4373 20.6875 14.3123C21.5625 15.1873 22 16.2498 22 17.4998C22 18.7498 21.5625 19.8123 20.6875 20.6873C19.8125 21.5623 18.75 21.9998 17.5 21.9998ZM3 20.4998V14.4998C3 14.2165 3.09583 13.979 3.2875 13.7873C3.47917 13.5956 3.71667 13.4998 4 13.4998H10C10.2833 13.4998 10.5208 13.5956 10.7125 13.7873C10.9042 13.979 11 14.2165 11 14.4998V20.4998C11 20.7831 10.9042 21.0206 10.7125 21.2123C10.5208 21.404 10.2833 21.4998 10 21.4998H4C3.71667 21.4998 3.47917 21.404 3.2875 21.2123C3.09583 21.0206 3 20.7831 3 20.4998ZM17.5 19.9998C18.2 19.9998 18.7917 19.7581 19.275 19.2748C19.7583 18.7915 20 18.1998 20 17.4998C20 16.7998 19.7583 16.2081 19.275 15.7248C18.7917 15.2415 18.2 14.9998 17.5 14.9998C16.8 14.9998 16.2083 15.2415 15.725 15.7248C15.2417 16.2081 15 16.7998 15 17.4998C15 18.1998 15.2417 18.7915 15.725 19.2748C16.2083 19.7581 16.8 19.9998 17.5 19.9998ZM5 19.4998H9V15.4998H5V19.4998ZM10.05 8.9998H13.95L12 5.8498L10.05 8.9998Z" fill="#646464"/>
</g>
</svg>
