<svg width="28" height="28" viewBox="0 0 28 28" fill="none" xmlns="http://www.w3.org/2000/svg">
<mask id="mask0_356_294" style="mask-type:alpha" maskUnits="userSpaceOnUse" x="0" y="0" width="28" height="28">
<rect width="28" height="28" fill="#D9D9D9"/>
</mask>
<g mask="url(#mask0_356_294)">
<path d="M11.1058 18.2179C9.11349 18.2179 7.4263 17.5269 6.04419 16.145C4.66227 14.7629 3.97131 13.0757 3.97131 11.0834C3.97131 9.09115 4.66227 7.40396 6.04419 6.02185C7.4263 4.63993 9.11349 3.94897 11.1058 3.94897C13.098 3.94897 14.7852 4.63993 16.1674 6.02185C17.5493 7.40396 18.2402 9.09115 18.2402 11.0834C18.2402 11.9166 18.1004 12.7124 17.8208 13.4707C17.541 14.2291 17.1678 14.8886 16.7011 15.4494L23.4141 22.1624C23.5757 22.3238 23.6583 22.5268 23.662 22.7714C23.6657 23.016 23.5831 23.2228 23.4141 23.3918C23.2451 23.5607 23.0402 23.6452 22.7993 23.6452C22.5585 23.6452 22.3537 23.5607 22.1847 23.3918L15.4717 16.6788C14.8884 17.1604 14.2176 17.5373 13.4592 17.8096C12.7009 18.0818 11.9164 18.2179 11.1058 18.2179ZM11.1058 16.4682C12.609 16.4682 13.8822 15.9465 14.9254 14.9031C15.9688 13.8599 16.4905 12.5867 16.4905 11.0834C16.4905 9.58018 15.9688 8.30696 14.9254 7.26377C13.8822 6.22038 12.609 5.69868 11.1058 5.69868C9.60252 5.69868 8.3293 6.22038 7.2861 7.26377C6.24272 8.30696 5.72102 9.58018 5.72102 11.0834C5.72102 12.5867 6.24272 13.8599 7.2861 14.9031C8.3293 15.9465 9.60252 16.4682 11.1058 16.4682Z" fill="#131313"/>
</g>
</svg>
