<svg width="32" height="32" viewBox="0 0 32 32" fill="none" xmlns="http://www.w3.org/2000/svg">
<path fill-rule="evenodd" clip-rule="evenodd" d="M24.1551 20.912L24.1627 13.4969L18.8853 8.23609C17.2926 6.65047 14.7179 6.65047 13.1253 8.23609L7.85938 13.4841V20.9081C7.86361 23.1535 9.68693 24.9705 11.9323 24.967H20.0821C22.3259 24.9706 24.1487 23.1558 24.1551 20.912Z" stroke="black" stroke-width="1.8" stroke-linecap="round" stroke-linejoin="round"/>
<path d="M25.1215 8.34281C25.1215 7.81261 24.6916 7.38281 24.1615 7.38281C23.6313 7.38281 23.2015 7.81261 23.2015 8.34281H25.1215ZM24.1615 13.4897H23.2015C23.2015 13.7448 23.303 13.9894 23.4837 14.1695L24.1615 13.4897ZM25.565 16.2444C25.9404 16.6188 26.5483 16.6178 26.9225 16.2424C27.2969 15.8668 27.296 15.2591 26.9205 14.8847L25.565 16.2444ZM8.5346 14.1567C8.91008 13.7825 8.91101 13.1746 8.53668 12.7991C8.16235 12.4236 7.55451 12.4227 7.17903 12.797L8.5346 14.1567ZM5.08495 14.8847C4.70948 15.2591 4.70854 15.8668 5.08288 16.2424C5.4572 16.6178 6.06505 16.6188 6.44052 16.2444L5.08495 14.8847ZM17.6027 24.9598C17.6027 25.49 18.0326 25.9198 18.5627 25.9198C19.0929 25.9198 19.5227 25.49 19.5227 24.9598H17.6027ZM12.4827 24.9598C12.4827 25.49 12.9126 25.9198 13.4427 25.9198C13.9729 25.9198 14.4027 25.49 14.4027 24.9598H12.4827ZM23.2015 8.34281V13.4897H25.1215V8.34281H23.2015ZM23.4837 14.1695L25.565 16.2444L26.9205 14.8847L24.8392 12.8098L23.4837 14.1695ZM7.17903 12.797L5.08495 14.8847L6.44052 16.2444L8.5346 14.1567L7.17903 12.797ZM19.5227 24.9598V22.6814H17.6027V24.9598H19.5227ZM19.5227 22.6814C19.5227 20.7373 17.9468 19.1614 16.0027 19.1614V21.0814C16.8864 21.0814 17.6027 21.7977 17.6027 22.6814H19.5227ZM16.0027 19.1614C14.0587 19.1614 12.4827 20.7373 12.4827 22.6814H14.4027C14.4027 21.7977 15.119 21.0814 16.0027 21.0814V19.1614ZM12.4827 22.6814V24.9598H14.4027V22.6814H12.4827Z" fill="black"/>
</svg>
