<svg width="28" height="28" viewBox="0 0 28 28" fill="none" xmlns="http://www.w3.org/2000/svg">
<mask id="mask0_356_297" style="mask-type:alpha" maskUnits="userSpaceOnUse" x="0" y="0" width="28" height="28">
<rect width="28" height="28" fill="#D9D9D9"/>
</mask>
<g mask="url(#mask0_356_297)">
<path d="M5.83331 21.0492C6.88331 20.0187 8.10345 19.2068 9.49373 18.6138C10.884 18.0207 12.3861 17.7242 14 17.7242C15.6139 17.7242 17.116 18.0207 18.5062 18.6138C19.8965 19.2068 21.1166 20.0187 22.1666 21.0492V6.19229C22.1666 6.10246 22.1292 6.02021 22.0544 5.94554C21.9797 5.87068 21.8974 5.83325 21.8076 5.83325H6.19235C6.10252 5.83325 6.02027 5.87068 5.9456 5.94554C5.87074 6.02021 5.83331 6.10246 5.83331 6.19229V21.0492ZM14 15.2115C15.0529 15.2115 15.9481 14.8428 16.6856 14.1055C17.423 13.368 17.7916 12.4728 17.7916 11.4198C17.7916 10.3669 17.423 9.4717 16.6856 8.73417C15.9481 7.99684 15.0529 7.62817 14 7.62817C12.9471 7.62817 12.0518 7.99684 11.3143 8.73417C10.577 9.4717 10.2083 10.3669 10.2083 11.4198C10.2083 12.4728 10.577 13.368 11.3143 14.1055C12.0518 14.8428 12.9471 15.2115 14 15.2115ZM6.19235 23.9166C5.60299 23.9166 5.10415 23.7124 4.69581 23.3041C4.28748 22.8958 4.08331 22.3969 4.08331 21.8075V6.19229C4.08331 5.60293 4.28748 5.10409 4.69581 4.69575C5.10415 4.28742 5.60299 4.08325 6.19235 4.08325H21.8076C22.397 4.08325 22.8958 4.28742 23.3041 4.69575C23.7125 5.10409 23.9166 5.60293 23.9166 6.19229V21.8075C23.9166 22.3969 23.7125 22.8958 23.3041 23.3041C22.8958 23.7124 22.397 23.9166 21.8076 23.9166H6.19235ZM7.20648 22.1666H20.7935C19.8034 21.2587 18.7239 20.583 17.5551 20.1395C16.3861 19.696 15.2011 19.4742 14 19.4742C12.8139 19.4742 11.6266 19.696 10.4381 20.1395C9.2499 20.583 8.17267 21.2587 7.20648 22.1666ZM14 13.4615C13.439 13.4615 12.9585 13.2614 12.5586 12.8613C12.1584 12.4613 11.9583 11.9808 11.9583 11.4198C11.9583 10.8589 12.1584 10.3784 12.5586 9.97842C12.9585 9.57825 13.439 9.37817 14 9.37817C14.561 9.37817 15.0414 9.57825 15.4414 9.97842C15.8416 10.3784 16.0416 10.8589 16.0416 11.4198C16.0416 11.9808 15.8416 12.4613 15.4414 12.8613C15.0414 13.2614 14.561 13.4615 14 13.4615Z" fill="#131313"/>
</g>
</svg>
