<svg width="16" height="16" viewBox="0 0 16 16" fill="none" xmlns="http://www.w3.org/2000/svg">
<path fill-rule="evenodd" clip-rule="evenodd" d="M11 6.5C10.586 6.5 10.25 6.836 10.25 7.25C10.25 7.664 10.586 8 11 8C11.414 8 11.75 7.664 11.75 7.25C11.75 6.836 11.414 6.5 11 6.5ZM8 11.75C7.562 11.75 7.139 11.699 6.7325 11.6124L4.967 12.6736L4.99063 10.934C3.63725 10.1203 2.75 8.77475 2.75 7.25C2.75 4.76487 5.1005 2.75 8 2.75C10.8995 2.75 13.25 4.76487 13.25 7.25C13.25 9.7355 10.8995 11.75 8 11.75ZM8 2C4.6865 2 2 4.35087 2 7.25C2 8.90712 2.87937 10.3828 4.25 11.3446V14L6.87838 12.4051C7.24213 12.4651 7.61637 12.5 8 12.5C11.3135 12.5 14 10.1495 14 7.25C14 4.35087 11.3135 2 8 2ZM5 6.5C4.586 6.5 4.25 6.836 4.25 7.25C4.25 7.664 4.586 8 5 8C5.414 8 5.75 7.664 5.75 7.25C5.75 6.836 5.414 6.5 5 6.5ZM8 6.5C7.586 6.5 7.25 6.836 7.25 7.25C7.25 7.664 7.586 8 8 8C8.414 8 8.75 7.664 8.75 7.25C8.75 6.836 8.414 6.5 8 6.5Z" fill="#909090"/>
</svg>
