<svg width="96" height="32" viewBox="0 0 96 32" fill="none" xmlns="http://www.w3.org/2000/svg">
<rect width="32" height="32" fill="#D9D9D9"/>
<path d="M44.2656 10.2969C46.3906 10.2969 47.9219 12.2344 47.9375 15.2812C47.9219 18.3594 46.3906 20.2812 44.2656 20.2812C42.125 20.2812 40.5781 18.3594 40.5938 15.2812C40.5781 12.2344 42.125 10.2969 44.2656 10.2969ZM44.2656 11.8594C43.0781 11.8594 42.2656 13.125 42.2656 15.2812C42.2656 17.4531 43.0781 18.7188 44.2656 18.7188C45.4688 18.7188 46.2656 17.4531 46.2656 15.2812C46.2656 13.125 45.4688 11.8594 44.2656 11.8594ZM51.5312 9.26562V14.6875H53.7031V16.1562H51.5312V23.3906H49.7969V9.26562H51.5312ZM66.2188 9.28125V23.375H64.4531V20.1406H61.4531V18.8281H64.4531V9.28125H66.2188ZM54.2344 16.5312C56.8906 16.5312 60.4219 16.5156 63.4844 16.0938L63.5938 17.375C62.2969 17.6016 60.9609 17.7344 59.6562 17.8125V22.9531H57.9062V17.9062C56.6719 17.9453 55.5 17.9531 54.4531 17.9531L54.2344 16.5312ZM58.875 9.89062C60.9531 9.89062 62.4688 11.0625 62.4688 12.75C62.4688 14.4688 60.9531 15.5938 58.875 15.5938C56.75 15.5938 55.25 14.4688 55.25 12.75C55.25 11.0625 56.75 9.89062 58.875 9.89062ZM58.875 11.2188C57.6875 11.2188 56.8906 11.8281 56.8906 12.75C56.8906 13.7031 57.6875 14.2656 58.875 14.2656C60 14.2656 60.8125 13.7031 60.8125 12.75C60.8125 11.8281 60 11.2188 58.875 11.2188ZM79.9688 9.26562V23.4062H78.2344V15.6875H75.5156V14.2656H78.2344V9.26562H79.9688ZM73.3125 13.0156C73.3125 15.4531 74.625 18.0469 76.9062 19.0312L75.875 20.4219C74.2344 19.6406 73.0625 18.0703 72.4531 16.2031C71.8203 18.1953 70.625 19.875 68.9844 20.7031L67.9375 19.3438C70.2031 18.2812 71.5312 15.5938 71.5469 13.0156V12.0781H68.5156V10.6562H76.3438V12.0781H73.3125V13.0156ZM93.7344 9.26562V23.3906H92.0156V9.26562H93.7344ZM84.4844 10.6406V18.3594C86.4688 18.3281 88.5781 18.1484 90.75 17.7188L90.9688 19.1719C88.4844 19.6875 86.1719 19.8438 83.9844 19.8438H82.7656V10.6406H84.4844Z" fill="#131313"/>
</svg>
