<svg width="16" height="17" viewBox="0 0 16 17" fill="none" xmlns="http://www.w3.org/2000/svg">
<mask id="mask0_346_596" style="mask-type:alpha" maskUnits="userSpaceOnUse" x="0" y="0" width="16" height="17">
<rect y="0.5" width="16" height="16" fill="#D9D9D9"/>
</mask>
<g mask="url(#mask0_346_596)">
<path d="M8 10.2847C7.91966 10.2847 7.84489 10.2718 7.77566 10.2462C7.70644 10.2205 7.64061 10.1765 7.57816 10.1142L4.582 7.11801C4.48977 7.02568 4.44255 6.90962 4.44033 6.76984C4.43822 6.63017 4.48544 6.51201 4.582 6.41534C4.67866 6.31879 4.79577 6.27051 4.93333 6.27051C5.07088 6.27051 5.188 6.31879 5.28466 6.41534L8 9.13084L10.7153 6.41534C10.8077 6.32312 10.9237 6.2759 11.0635 6.27367C11.2032 6.27156 11.3213 6.31879 11.418 6.41534C11.5146 6.51201 11.5628 6.62912 11.5628 6.76667C11.5628 6.90423 11.5146 7.02134 11.418 7.11801L8.42183 10.1142C8.35938 10.1765 8.29355 10.2205 8.22433 10.2462C8.15511 10.2718 8.08033 10.2847 8 10.2847Z" fill="#333333"/>
</g>
</svg>
